<svg xmlns="http://www.w3.org/2000/svg" width="256" height="194" preserveAspectRatio="xMidYMid" version="1"><defs><linearGradient id="a" x1="0%" y1="50%" y2="50%"><stop offset="0%" stop-opacity="0"/><stop offset="100%" stop-opacity="0"/></linearGradient></defs><path fill="#E3E3E3" d="M239 194H16c-8 0-16-7-16-16V17C0 8 7 1 16 1h223c8 0 16 7 16 16v161c0 9-7 16-16 16z"/><path fill="#D54B3D" d="M16 194c-9 0-16-7-16-16V17C0 8 7 6 16 6s16 2 16 11v177H16z"/><path fill="#D72B27" d="M16 8c12 0 14 4 14 9v174H16c-7 0-13-6-13-13V17c0-5 2-9 13-9zm0-2C7 6 0 8 0 17v161c0 9 7 16 16 16h16V17c0-9-7-11-16-11z"/><path fill="#D54B3D" d="M239 194h-16V16c0-9 7-10 16-10s16 1 16 10v162c0 9-7 16-16 16z"/><path fill="#D72B27" d="M239 8c10 0 13 2 13 8v162c0 7-6 14-13 14h-14V16c0-6 4-8 14-8zm0-2c-9 0-16 1-16 10v178h16c9 0 16-7 16-16V16c0-9-7-10-16-10z"/><path fill="url(#a)" d="M171 194L2 23l8 4 118 85 127-93v159c0 9-7 16-16 16h-68z"/><path fill="#D54B3D" d="M127 117L7 30C0 25-2 15 3 7c5-7 16-8 23-3l101 74L230 3c7-5 17-3 22 4s4 17-4 22l-121 88z"/><path fill="#D72B27" d="M239 2c4 0 8 2 11 6 4 6 3 14-3 19l-120 87L8 28C2 23 1 15 5 9c3-4 7-6 11-6l9 3 101 74h3L231 5c2-2 5-3 8-3zm0-2c-3 0-7 1-9 3L127 78 26 4c-3-2-6-3-10-3C11 1 6 3 3 7c-5 8-3 18 4 23l120 87 121-88c7-5 9-15 4-22-3-5-8-7-13-7z"/></svg>
