<?xml version="1.0" standalone="no"?>
<!DOCTYPE svg PUBLIC "-//W3C//DTD SVG 20010904//EN"
 "http://www.w3.org/TR/2001/REC-SVG-20010904/DTD/svg10.dtd">
<svg version="1.0" xmlns="http://www.w3.org/2000/svg"
 width="191.000000pt" height="191.000000pt" viewBox="0 0 191.000000 191.000000"
 preserveAspectRatio="xMidYMid meet">
<metadata>
Created by potrace 1.11, written by Peter Selinger 2001-2013
</metadata>
<g transform="translate(0.000000,191.000000) scale(0.100000,-0.100000)"
fill="#000000" stroke="none">
<path d="M770 1890 c-109 -23 -180 -49 -266 -95 -216 -116 -375 -305 -453
-540 -38 -115 -46 -164 -45 -300 1 -136 7 -182 40 -286 93 -294 328 -530 620
-622 116 -37 153 -42 309 -41 121 1 152 5 230 28 366 109 621 389 689 756 16
87 14 280 -4 355 -6 28 -13 57 -15 65 -7 34 -55 152 -80 197 -143 256 -368
422 -668 489 -12 3 -78 7 -147 9 -93 2 -147 -2 -210 -15z"/>
</g>
</svg>
