<svg xmlns="http://www.w3.org/2000/svg" style="transform:none;transform-origin:50% 50%" width="400" height="150" cursor="move" viewBox="0 0 16000 6000"><path d="M8240 3865V2080h530v209l134-90c74-49 142-89 150-89 9 0 42-6 74-14 277-70 516-63 743 21 41 15 94 38 119 51 25 14 54 30 65 36 123 68 312 258 394 397 122 207 191 462 191 706 0 227-54 461-151 658-189 384-622 639-1058 623-130-5-173-13-301-56-117-39-239-110-315-186l-40-39-3 671-2 672h-530V3865zm1240 195c98-15 147-30 236-70 100-46 163-97 228-183 26-35 80-133 89-163 51-171 50-165 50-329 0-131-3-174-20-236-24-88-57-168-90-221-13-21-23-40-23-43 0-12-93-112-140-150-37-30-117-70-180-91-79-25-293-25-370 0-285 95-426 270-474 587-20 132-20 158 3 289 45 263 166 445 371 558 37 21 77 33 155 47 91 17 89 17 165 5z"/><path d="M7405 4623c-75-17-99-28-143-63-54-42-77-78-98-155-29-107-8-192 68-268 68-68 114-87 216-87 90 0 130 14 188 70 62 58 78 103 78 215 0 103-3 116-58 197-42 63-170 110-251 91z"/><path d="M2380 4560c-50-7-111-22-197-48-28-9-81-34-153-73-35-19-129-87-162-118l-28-25v234h-530V960h530l2 671 3 671 43-38c49-43 158-112 217-138 88-39 102-45 155-60 129-36 159-40 315-39 169 0 261 14 365 54 30 11 63 23 73 26 39 12 132 63 221 122 49 32 173 153 212 206 16 22 31 42 35 45 3 3 9 12 12 20 4 8 16 29 27 45 36 56 96 180 114 235 10 30 22 65 27 77 20 54 49 208 59 318 23 250-33 556-139 764-54 106-75 141-83 141-5 0-8 5-8 11 0 29-152 190-244 258-52 40-197 123-232 134-10 3-39 13-64 22-121 45-184 56-350 60-91 2-190 0-220-5zm175-521c163-21 268-66 362-153 102-95 167-207 214-374 31-108 31-343 1-447-80-272-211-422-427-489-104-31-199-41-283-27-77 12-195 54-220 78-7 7-17 13-21 13-17 0-130 118-163 170-91 144-128 279-128 474 0 142 15 228 60 357 22 62 77 161 92 167 4 2 8 8 8 13 0 17 110 118 159 147 61 36 103 51 181 67 86 17 74 17 165 4z"/><path d="M4840 4560c-114-12-229-54-315-113-69-48-203-187-226-235-12-25-30-88-40-141-16-86-18-168-19-818v-723h-320v-450h320v-530h41c24 0 84-16 143-39 106-40 222-71 269-71h27v640h530v450h-530v1331l29 58c54 107 129 149 248 138 69-7 87-15 156-71 27-21 50-37 52-35 1 2 33 42 70 89s75 95 85 107 33 48 51 80 43 75 56 96l24 39-45 43c-45 42-196 125-228 125-8 0-33 6-54 14-50 17-228 26-324 16z"/><path d="M5710 3305V2080h500v90c0 50 2 90 5 90 13 0 119-71 135-90s150-80 255-116c71-24 95-28 215-28 91-1 149 4 178 13 42 14 42 15 42 61 0 26-6 78-14 116s-19 103-26 144c-6 41-16 103-21 137l-11 62-168-1c-164-1-231 9-292 43-10 5-22 9-27 9-32 0-161 117-161 146 0 4-6 15-14 23-29 32-58 150-77 311-17 147-19 235-19 803v637h-500V3305z"/><path d="M10990 3305V2080h529l3 72c3 64 5 70 18 56 42-42 235-128 287-128 17 0 44-5 60-11 15-6 60-18 98-25 197-39 429 14 629 143 84 54 190 153 206 194 16 37 24 37 40 0 15-37 135-152 206-198 35-23 203-103 216-103 7 0 31-6 53-14 80-27 237-39 348-26 326 37 579 210 705 481 42 91 54 132 77 278 12 78 15 234 15 913v818h-477l-7-712c-8-801-16-921-63-979-7-8-13-19-13-23s-16-32-35-62c-73-114-171-180-310-209-74-15-85-15-155 1-41 9-100 29-131 44-56 29-153 116-170 154-5 12-25 49-44 83-64 116-65 128-65 958v745h-499l-4-697c-4-749-9-828-58-972-21-59-33-76-117-158-105-103-159-133-277-158-77-16-107-14-210 13-77 19-165 82-215 152-92 128-97 185-106 1118l-7 702h-527V3305z"/></svg>
