<?xml version="1.0" encoding="UTF-8" standalone="no"?><svg xmlns="http://www.w3.org/2000/svg" width="103" height="104" version="1"><path fill="#0072c6" d="M65 22v21l7 4 31-21c0-2-2-4-3-4H65zM65 50l6 5h2l30-20v37c0 4-2 6-5 6H65V50z"/><g fill="#0072c6"><path d="M31 41c-2 0-4 1-5 3-2 2-2 5-2 8 0 4 0 6 2 8 1 2 3 3 5 3s4-1 5-3l2-8-2-8c-1-2-3-3-5-3z"/><path d="M0 12v80l61 12V0L0 12zm41 53c-3 4-6 5-10 5s-8-1-10-5c-3-3-4-7-4-12 0-6 1-11 4-14 2-3 6-5 10-5s7 2 10 5c2 3 3 7 3 13 0 5-1 10-3 13z"/></g></svg>
